<svg xmlns="http://www.w3.org/2000/svg" xmlns:xlink="http://www.w3.org/1999/xlink" style="enable-background:new 0 0 16 16" id="Button" x="0" y="0" version="1.1" viewBox="0 0 16 16" xml:space="preserve"><style type="text/css">.st0{fill:#d3d3d3}.st0,.st1,.st2,.st3,.st4{fill-rule:evenodd;clip-rule:evenodd}.st1{fill:#999}.st2{fill:#aa3522}.st3{fill:#cc4729}.st4{fill:#f85b30}.st5{fill:#fff}</style><g><path d="M0,0h16v16H0V0z" class="st0"/><polygon points="16 8.1 14 6 13 9 12 9 3 10 9 16 16 16" class="st1"/><g><polygon points="14 10 3 10 2 9 2.3 5.3 13 5 14 6" class="st2"/></g><g><polygon points="14 10 3 10 2 9 2.3 5.3 13 9 14 10" class="st3"/></g><g><rect width="11" height="4" x="2" y="5" class="st4"/></g><g><path d="M3,6.4h0.8c0.1,0,0.2,0,0.3,0.1c0.1,0.1,0.1,0.1,0.1,0.2c0,0.1,0,0.1-0.1,0.2C4.1,7,4,7,4,7.1 c0.1,0,0.2,0.1,0.2,0.1c0,0.1,0.1,0.1,0.1,0.2c0,0.1,0,0.1,0,0.2c0,0.1-0.1,0.1-0.1,0.1c0,0-0.1,0-0.2,0c-0.1,0-0.2,0-0.2,0H3V6.4 z M3.4,7h0.2c0.1,0,0.1,0,0.1,0c0,0,0-0.1,0-0.1c0,0,0-0.1,0-0.1c0,0-0.1,0-0.1,0H3.4V7z M3.4,7.5h0.2c0.1,0,0.1,0,0.2,0 c0,0,0-0.1,0-0.1c0,0,0-0.1,0-0.1c0,0-0.1,0-0.2,0H3.4V7.5z" class="st5"/><path d="M5.4,6.4h0.4v0.8c0,0.1,0,0.2,0,0.2c0,0.1-0.1,0.1-0.1,0.2C5.6,7.7,5.5,7.7,5.5,7.8c-0.1,0-0.2,0-0.3,0 c-0.1,0-0.1,0-0.2,0c-0.1,0-0.1,0-0.2-0.1c-0.1,0-0.1-0.1-0.1-0.1c0-0.1-0.1-0.1-0.1-0.2c0-0.1,0-0.2,0-0.2V6.4h0.4v0.8 c0,0.1,0,0.1,0.1,0.2c0,0,0.1,0.1,0.2,0.1c0.1,0,0.1,0,0.2-0.1c0,0,0.1-0.1,0.1-0.2V6.4z" class="st5"/><path d="M6.1,6.4h1.3v0.3H6.9v1H6.5v-1H6.1V6.4z" class="st5"/><path d="M7.5,6.4h1.3v0.3H8.4v1H8v-1H7.5V6.4z" class="st5"/><path d="M9,7.1C9,6.9,9,6.7,9.2,6.6c0.1-0.1,0.3-0.2,0.5-0.2c0.2,0,0.4,0.1,0.5,0.2c0.1,0.1,0.2,0.3,0.2,0.5 c0,0.2,0,0.3-0.1,0.4c-0.1,0.1-0.1,0.2-0.2,0.2C10,7.8,9.8,7.8,9.7,7.8c-0.2,0-0.3,0-0.4-0.1S9.1,7.6,9.1,7.5C9,7.4,9,7.3,9,7.1z M9.4,7.1c0,0.1,0,0.2,0.1,0.3c0.1,0.1,0.1,0.1,0.2,0.1c0.1,0,0.2,0,0.2-0.1c0-0.1,0.1-0.2,0.1-0.3c0-0.1,0-0.2-0.1-0.3 C9.8,6.7,9.8,6.7,9.7,6.7c-0.1,0-0.2,0-0.2,0.1C9.4,6.9,9.4,7,9.4,7.1z" class="st5"/><path d="M10.7,6.4h0.4l0.5,0.7V6.4H12v1.4h-0.4L11.1,7v0.7h-0.4V6.4z" class="st5"/></g></g></svg>