<svg xmlns="http://www.w3.org/2000/svg" xmlns:xlink="http://www.w3.org/1999/xlink" id="Contact" x="0" y="0" version="1.1" viewBox="0 0 16 16" xml:space="preserve" style="enable-background:new 0 0 16 16"><style type="text/css">.st0{fill-rule:evenodd;clip-rule:evenodd;fill:#d3d3d3}.st1{fill:#999}.st2{fill:#fff}.st3{fill:#4bb4da}.st4,.st5{fill:none;stroke:#f85b30;stroke-miterlimit:10}.st5{fill:#fff}.st6{fill:#f85b30}</style><path d="M0,0h16v16H0V0z" class="st0"/><polygon points="13 4 12.6 11 3 11 8 16 16 16 16 7" class="st1"/><g><g><rect width="9" height="6" x="3.5" y="4.5" class="st2"/><path d="M12,5v5H4V5H12 M13,4H3v7h10V4L13,4z" class="st3"/></g><polyline points="4 10 8 6.4 12 10" class="st4"/><polyline points="4 5 8 8.7 12 5" class="st5"/><g><path d="M12,5v5H4V5H12 M13,4H3v7h10V4L13,4z" class="st6"/></g></g></svg>