<svg xmlns="http://www.w3.org/2000/svg" xmlns:xlink="http://www.w3.org/1999/xlink" style="enable-background:new 0 0 100 100" id="element_x_1_" x="0" y="0" version="1.1" viewBox="0 0 100 100" xml:space="preserve"><style type="text/css">.st0{fill:#d3d3d3}.st0,.st1,.st2{fill-rule:evenodd;clip-rule:evenodd}.st1{fill:#999}.st2{fill:#fff}.st3{fill:#ff5335}.st4,.st5{fill-rule:evenodd;clip-rule:evenodd;fill:#939598}.st5{fill:#bebebe}.st6,.st7{fill:#7ebcd2}.st7,.st8,.st9{fill-rule:evenodd;clip-rule:evenodd}.st8{fill:#a9d2e1}.st9{fill:#d4e9f0}</style><path d="M0,0h100v100H0V0z" class="st0"/><polygon points="100 24.3 88 12 87 78 20.3 78.2 12 88 24.9 100 100 100" class="st1"/><g><rect width="74" height="74" x="13" y="13.1" class="st2"/><path d="M86,14.1v72H14v-72H86 M88,12.1H12v76h76V12.1L88,12.1z" class="st3"/></g><rect width="42" height="8" x="29" y="24" class="st2"/><rect width="64" height="4" x="18" y="38" class="st2"/><rect width="64" height="4" x="18" y="47" class="st2"/><rect width="64" height="8" x="18" y="20" class="st4"/><rect width="64" height="4" x="18" y="34" class="st5"/><rect width="64" height="4" x="18" y="42" class="st5"/><rect width="64" height="4" x="18" y="50" class="st5"/><rect width="26" height="4" x="18" y="58" class="st5"/><rect width="26" height="4" x="18" y="66" class="st5"/><rect width="26" height="4" x="18" y="74" class="st5"/><g><rect width="32" height="18" x="49" y="59" class="st2"/><path d="M80,60v16H50V60H80 M82,58H48v20h34V58L82,58z" class="st6"/></g><polygon points="58.6 67.3 50 76 67.1 76" class="st7"/><polygon points="69 64.3 58 76 79.9 76" class="st8"/><circle cx="55.2" cy="63.2" r="2.2" class="st9"/></svg>