<svg xmlns="http://www.w3.org/2000/svg" xmlns:xlink="http://www.w3.org/1999/xlink" style="enable-background:new 0 0 100 100" id="new_element" x="0" y="0" version="1.1" viewBox="0 0 100 100" xml:space="preserve"><style type="text/css">.st0{fill:#d3d3d3}.st0,.st1,.st2{fill-rule:evenodd;clip-rule:evenodd}.st1{fill:#999}.st2{fill:#fff}.st3{fill:#ff5335}.st4{fill:#53a5c3}.st4,.st5,.st6,.st7{fill-rule:evenodd;clip-rule:evenodd}.st5{fill:#7ebcd2}.st6{fill:#a9d2e1}.st7{fill:#737373}</style><path d="M0,0h100v100H0V0z" class="st0"/><polygon points="100 24.3 88 12 87 78 20.3 78.2 12 88 24.9 100 100 100" class="st1"/><g><rect width="74" height="74" x="13" y="13.1" class="st2"/><path d="M86,14.1v72H14v-72H86 M88,12.1H12v76h76V12.1L88,12.1z" class="st3"/></g><rect width="42" height="8" x="29" y="24" class="st2"/><rect width="64" height="4" x="18" y="38" class="st2"/><polygon points="36.1 68.5 19 86 53.3 86" class="st4"/><polygon points="60.1 62.6 37.1 86 83 86" class="st5"/><circle cx="27.5" cy="60.5" r="4.5" class="st6"/><rect width="64" height="4" x="18" y="47" class="st2"/><rect width="42" height="8" x="29" y="23" class="st7"/><rect width="64" height="4" x="18" y="37" class="st7"/><rect width="64" height="4" x="18" y="45" class="st7"/></svg>