<svg xmlns="http://www.w3.org/2000/svg" xmlns:xlink="http://www.w3.org/1999/xlink" style="enable-background:new 0 0 16 16" id="FullWidthImage" x="0" y="0" version="1.1" viewBox="0 0 16 16" xml:space="preserve"><style type="text/css">.st0,.st1{fill-rule:evenodd;clip-rule:evenodd;fill:#d3d3d3}.st1{fill:#fff}.st2{fill:#f85b30}.st3{fill:#999}.st3,.st4,.st5,.st6{fill-rule:evenodd;clip-rule:evenodd}.st4{fill:#4bb4da}.st5{fill:#93d2e9}.st6{fill:#b7e1f0}.st7{fill:#fff}</style><g><path d="M0,0h16v16H0V0z" class="st0"/><g><rect width="13" height="13" x="1.5" y="1.5" class="st1"/><path d="M14,2v12H2V2H14 M15,1H1v14h14V1L15,1z" class="st2"/></g><g><polygon points="15 15 1 15 2 16 16 16" class="st3"/></g><g><rect width="14" height="8" x="1" y="4" class="st4"/></g><polygon points="6.3 8 3 12 9.5 12" class="st5"/><polygon points="11 6.3 7 12 15 12" class="st6"/><circle cx="4" cy="7" r="1" class="st7"/><g><polygon points="15 15 15 1 16 2 16 16" class="st3"/></g></g></svg>