<svg xmlns="http://www.w3.org/2000/svg" xmlns:xlink="http://www.w3.org/1999/xlink" style="enable-background:new 0 0 16 16" id="IconTextButton" x="0" y="0" version="1.1" viewBox="0 0 16 16" xml:space="preserve"><style type="text/css">.st0,.st1{fill-rule:evenodd;clip-rule:evenodd;fill:#d3d3d3}.st1{fill:#fff}.st2{fill:#f85b30}.st3{fill:#999}.st3,.st4,.st5,.st6,.st7{fill-rule:evenodd;clip-rule:evenodd}.st4{fill:#58595b}.st5{fill:#939598}.st6{fill:#4bb4da}.st7{fill:#f85b30}</style><g><path d="M0,0h16v16H0V0z" class="st0"/><g><rect width="13" height="13" x="1.5" y="1.5" class="st1"/><path d="M14,2v12H2V2H14 M15,1H1v14h14V1L15,1z" class="st2"/></g><g><polygon points="15 15 1 15 2 16 16 16" class="st3"/></g><rect width="7" height="1" x="6" y="4" class="st4"/><rect width="10" height="1" x="3" y="6" class="st5"/><circle cx="4" cy="4" r="1" class="st6"/><g><rect width="4" height="1" x="3" y="12" class="st7"/></g><g><polygon points="15 15 15 1 16 2 16 16" class="st3"/></g><rect width="10" height="1" x="3" y="8" class="st5"/><rect width="10" height="1" x="3" y="10" class="st5"/></g></svg>