<svg xmlns="http://www.w3.org/2000/svg" xmlns:xlink="http://www.w3.org/1999/xlink" id="LogoCarousel" x="0" y="0" version="1.1" viewBox="0 0 16 16" xml:space="preserve" style="enable-background:new 0 0 16 16"><style type="text/css">.st0{fill:#d3d3d3}.st0,.st1,.st2{fill-rule:evenodd;clip-rule:evenodd}.st1{fill:#999}.st2{fill:#fff}.st3{fill:#4bb4da}.st4{fill:#f85b30}.st5{fill:#6d6e71;stroke:#58595b;stroke-linecap:square;stroke-miterlimit:10}.st6{fill:#58595b}</style><g><path d="M0,0h16v16H0V0z" class="st0"/><polygon points="16 8.2 12.9 5.4 12 8 8 4 3 10 9 16 16 16" class="st1"/><g><rect width="4" height="5" x="3.5" y="4.5" class="st2"/><path d="M7,5v4H4V5H7 M8,4H3v6h5V4L8,4z" class="st3"/></g><g><circle cx="11" cy="7" r="2" class="st2"/><path d="M11,5.5c0.8,0,1.5,0.7,1.5,1.5S11.8,8.5,11,8.5S9.5,7.8,9.5,7S10.2,5.5,11,5.5 M11,4.5C9.6,4.5,8.5,5.6,8.5,7 S9.6,9.5,11,9.5s2.5-1.1,2.5-2.5S12.4,4.5,11,4.5L11,4.5z" class="st4"/></g><g><line x1="14" x2="15" y1="6" y2="7" class="st5"/><line x1="14" x2="15" y1="8" y2="7" class="st5"/></g><circle cx="6" cy="11.6" r=".6" class="st4"/><g><circle cx="8" cy="11.6" r=".6" class="st6"/></g><g><circle cx="10" cy="11.6" r=".6" class="st6"/></g><g><line x1="2" x2="1" y1="8" y2="7" class="st5"/><line x1="2" x2="1" y1="6" y2="7" class="st5"/></g></g></svg>