<svg xmlns="http://www.w3.org/2000/svg" xmlns:xlink="http://www.w3.org/1999/xlink" id="ResponsiveVideo" x="0" y="0" version="1.1" viewBox="-289 412.9 16 16" xml:space="preserve" style="enable-background:new -289 412.9 16 16"><style type="text/css">.st0{fill:#d3d3d3}.st1{fill:#fff}.st2{fill:#f85b30}.st3{fill:#999}.st4{fill:#4bb4da}.st5{fill:#93d2e9}.st6{fill:#b7e1f0}</style><g><path d="M-289,412.9h16v16h-16V412.9z" class="st0"/><g><rect width="13" height="13" x="-287.5" y="414.4" class="st1"/><path d="M-275,414.9v12h-12v-12H-275 M-274,413.9h-14v14h14V413.9L-274,413.9z" class="st2"/></g><g><polygon points="-274 427.9 -288 427.9 -287 428.9 -273 428.9" class="st3"/></g><g><polygon points="-274 427.9 -274 413.9 -273 414.9 -273 428.9" class="st3"/></g><g><rect width="14" height="8" x="-288" y="416.9" class="st4"/></g><polygon points="-282.7 420.9 -286 424.9 -279.5 424.9" class="st5"/><polygon points="-278 419.2 -282 424.9 -274 424.9" class="st6"/><circle cx="-285" cy="419.9" r="1" class="st1"/><path d="M-279.4,422.7h-3.4c-0.6,0-1-0.4-1-1V420c0-0.6,0.4-1,1-1h3.4c0.6,0,1,0.4,1,1v1.7 C-278.4,422.2-278.8,422.7-279.4,422.7z" class="st2"/><path d="M-281.7,421.7V420c0-0.1,0.2-0.2,0.3-0.2l1.4,0.8c0.1,0.1,0.1,0.3,0,0.3l-1.4,0.9 C-281.5,421.9-281.7,421.8-281.7,421.7z" class="st1"/></g></svg>