<svg xmlns="http://www.w3.org/2000/svg" xmlns:xlink="http://www.w3.org/1999/xlink" id="Slider" x="0" y="0" version="1.1" viewBox="0 0 16 16" xml:space="preserve" style="enable-background:new 0 0 16 16"><style type="text/css">.st0,.st1{fill-rule:evenodd;clip-rule:evenodd;fill:#d3d3d3}.st1{fill:#999}.st2{fill:#6d6e71;stroke:#58595b;stroke-linecap:square;stroke-miterlimit:10}.st3{fill:#f85b30}.st4{fill:#58595b}.st5{fill:#4bb4da}.st5,.st6,.st7{fill-rule:evenodd;clip-rule:evenodd}.st6{fill:#93d2e9}.st7{fill:#b7e1f0}.st8{fill:#fff}</style><g><path d="M0,0h16v16H0V0z" class="st0"/><polygon points="16 5 13 2 12 8 12 9 3 12 7 16 16 16" class="st1"/><g><line x1="14" x2="15" y1="6" y2="7" class="st2"/><line x1="14" x2="15" y1="8" y2="7" class="st2"/></g><circle cx="6" cy="13.4" r=".6" class="st3"/><g><circle cx="8" cy="13.4" r=".6" class="st4"/></g><g><circle cx="10" cy="13.4" r=".6" class="st4"/></g><g><rect width="9" height="9" x="3.5" y="2.5" class="st5"/><path d="M12,3v8H4V3H12 M13,2H3v10h10V2L13,2z" class="st3"/></g><polygon points="6.3 8.4 4.1 11 8.6 11" class="st6"/><polygon points="9.1 7.2 6.3 11 12 11" class="st7"/><ellipse cx="6.2" cy="6.3" class="st8" rx=".8" ry=".7"/><g><line x1="2" x2="1" y1="8" y2="7" class="st2"/><line x1="2" x2="1" y1="6" y2="7" class="st2"/></g></g></svg>