<svg xmlns="http://www.w3.org/2000/svg" xmlns:xlink="http://www.w3.org/1999/xlink" id="Social" x="0" y="0" version="1.1" viewBox="0 0 16 16" xml:space="preserve" style="enable-background:new 0 0 16 16"><style type="text/css">.st0,.st1{fill-rule:evenodd;clip-rule:evenodd;fill:#d3d3d3}.st1{fill:#999}.st2{fill:#fff}.st3{fill:#f85b30}.st4{fill:#4bb4da}</style><g><path d="M0,0h16v16H0V0z" class="st0"/><polygon points="16 16 16 6 13 3 12 5.1 3 13 6.1 16 16 16" class="st1"/><g><g><rect width="9" height="9" x="3.5" y="3.5" class="st2"/><path d="M12,4v8H4V4H12 M13,3H3v10h10V3L13,3z" class="st3"/></g><g><path d="M9.4,8H8.5v3.2H7.3V8H6.5V6.9l0.8,0l0-0.6c0-0.9,0.2-1.5,1.3-1.5h0.9v1.1H8.9c-0.4,0-0.4,0.2-0.4,0.4v0.6h1 L9.4,8z M9.4,8" class="st4"/></g></g></g></svg>