<svg xmlns="http://www.w3.org/2000/svg" xmlns:xlink="http://www.w3.org/1999/xlink" style="enable-background:new 0 0 16 16" id="AccordioncConteiner" x="0" y="0" version="1.1" viewBox="0 0 16 16" xml:space="preserve"><style type="text/css">.st0,.st1{fill-rule:evenodd;clip-rule:evenodd;fill:#d3d3d3}.st1{fill:#fff}.st2{fill:#f85b30}.st3{fill:#4bb4da}.st4{fill:#f85b30}.st4,.st5,.st6,.st7,.st8{fill-rule:evenodd;clip-rule:evenodd}.st5{fill:#999}.st6{fill:#58595b}.st7{fill:#939598}.st8{opacity:.1;fill:#fff}</style><g><path d="M0,0h16v16H0V0z" class="st0"/><g><rect width="13" height="13" x="1.5" y="1.5" class="st1"/><path d="M14,2v12H2V2H14 M15,1H1v14h14V1L15,1z" class="st2"/></g><g><rect width="9" height="3" x="3.5" y="3.5" class="st1"/><path d="M12,4v2H4V4H12 M13,3H3v4h10V3L13,3z" class="st3"/></g><g><rect width="9" height="6" x="3.5" y="6.5" class="st1"/><path d="M12,7v5H4V7H12 M13,6H3v7h10V6L13,6z" class="st3"/></g><polygon points="5.6 5 4.5 4.2 4.5 5.8" class="st4"/><polygon points="5.2 8.6 6 7.5 4.5 7.5" class="st4"/></g><g><polygon points="15 15 1 15 2 16 16 16" class="st5"/></g><g><polygon points="15 15 15 1 16 2 16 16" class="st5"/></g><rect width="6" height="1" x="5" y="9" class="st6"/><rect width="6" height="1" x="5" y="10.5" class="st7"/><rect width="12" height="12" x="2" y="2" class="st8"/></svg>