<svg xmlns="http://www.w3.org/2000/svg" xmlns:xlink="http://www.w3.org/1999/xlink" id="Paralax" x="0" y="0" version="1.1" viewBox="0 0 16 16" xml:space="preserve" style="enable-background:new 0 0 16 16"><style type="text/css">.st0,.st1{fill-rule:evenodd;clip-rule:evenodd;fill:#d3d3d3}.st1{fill:#999}.st2{opacity:.48}.st3{fill-rule:evenodd;clip-rule:evenodd;fill:#4bb4da}.st4{fill:#f85b30}.st5{fill-rule:evenodd;clip-rule:evenodd;fill:#d3edf4}.st6{opacity:.41}.st7{fill-rule:evenodd;clip-rule:evenodd;fill:#dceff4}.st8{fill:#fff}</style><g><path d="M0,0h16v16H0V0z" class="st0"/><polygon points="16 5 15 4 15 14 4 14 6 16 7 16 16 16" class="st1"/><g class="st2"><rect width="11" height="9" x="1.5" y="2.5" class="st3"/><path d="M12,3v8H2V3H12 M13,2H1v10h12V2L13,2z" class="st4"/></g><polygon points="6.1 6 2 11 10.2 11" class="st5"/><g><path d="M14,5v8H5V5H14 M15,4H4v10h11V4L15,4z" class="st4"/></g><g class="st6"><rect width="10" height="9" x="4.5" y="4.5" class="st3"/><path d="M14,5v8H5V5H14 M15,4H4v10h11V4L15,4z" class="st4"/></g><polygon points="10.5 7 6 13 14 13 14 11.7" class="st7"/><ellipse cx="8.8" cy="6.7" class="st8" rx=".8" ry=".7"/></g></svg>