<svg xmlns="http://www.w3.org/2000/svg" xmlns:xlink="http://www.w3.org/1999/xlink" style="enable-background:new 0 0 16 16" id="Accordion_2_" x="0" y="0" version="1.1" viewBox="0 0 16 16" xml:space="preserve"><style type="text/css">.st0,.st1{fill-rule:evenodd;clip-rule:evenodd;fill:#d3d3d3}.st1{fill:#fff}.st2{fill:#f85b30}.st3{fill:#999}.st3,.st4,.st5,.st6{fill-rule:evenodd;clip-rule:evenodd}.st4{fill:#58595b}.st5{fill:#939598}.st6{fill:#4bb4da}</style><g><path d="M0,0h16v16H0V0z" class="st0"/><g><rect width="13" height="4" x="1.5" y="1.5" class="st1"/><path d="M14,2v3H2V2H14 M15,1H1v5h14V1L15,1z" class="st2"/></g><g><rect width="13" height="9" x="1.5" y="5.5" class="st1"/><path d="M14,6v8H2V6H14 M15,5H1v10h14V5L15,5z" class="st2"/></g><g><polygon points="15 15 1 15 2 16 16 16" class="st3"/></g><g><polygon points="15 15 15 1 16 2 16 16" class="st3"/></g><rect width="10" height="1" x="3" y="9" class="st4"/><rect width="10" height="1" x="3" y="10.5" class="st5"/><rect width="10" height="1" x="3" y="12" class="st5"/><polygon points="4.5 3.5 3 2.5 3 4.5" class="st6"/><polygon points="3.5 8.5 4.5 7 2.5 7" class="st6"/></g></svg>