<svg xmlns="http://www.w3.org/2000/svg" xmlns:xlink="http://www.w3.org/1999/xlink" style="enable-background:new 0 0 16 16" id="SliderConteiner" x="0" y="0" version="1.1" viewBox="0 0 16 16" xml:space="preserve"><style type="text/css">.st0,.st1{fill-rule:evenodd;clip-rule:evenodd;fill:#d3d3d3}.st1{fill:#999}.st2{fill:#f85b30}.st3{fill:#58595b}.st4{fill:#4bb4da}.st4,.st5,.st6{fill-rule:evenodd;clip-rule:evenodd}.st5{fill:#93d2e9}.st6{fill:#b7e1f0}.st7{fill:#fff}.st8{fill:#6d6e71;stroke:#58595b;stroke-linecap:square;stroke-miterlimit:10}.st10,.st11,.st9{fill-rule:evenodd;clip-rule:evenodd}.st9{fill:#fff}.st10{fill:#58595b}.st11{fill:#939598}</style><g><path d="M0,0h16v16H0V0z" class="st0"/><polygon points="16 6 13 3 12.3 8.6 7.6 3 3 11 8 16 16 16" class="st1"/><circle cx="6" cy="13.4" r=".6" class="st2"/><g><circle cx="8" cy="13.4" r=".6" class="st3"/></g><g><circle cx="10" cy="13.4" r=".6" class="st3"/></g><g><rect width="3.6" height="7" x="3.5" y="3.5" class="st4"/><path d="M6.6,4v6H4V4H6.6 M7.6,3H3v8h4.6V3L7.6,3z" class="st2"/></g><polygon points="4 7.8 4 9.4 4 10.2 5.8 10.2" class="st5"/><polygon points="5.9 5.4 4.2 10.2 6.7 10.2 6.7 7.8" class="st6"/><ellipse cx="4.8" cy="4.8" class="st7" rx=".6" ry=".6"/><g><line x1="2" x2="1" y1="8" y2="7" class="st8"/><line x1="2" x2="1" y1="6" y2="7" class="st8"/></g><g><rect width="3.6" height="7" x="8.9" y="3.5" class="st9"/><path d="M12,4v6H9.4V4H12 M13,3H8.4v8H13V3L13,3z" class="st2"/></g><rect width="1.8" height=".7" x="9.8" y="6.7" class="st10"/><rect width="1.8" height=".7" x="9.8" y="8.7" class="st11"/><rect width="1.8" height=".7" x="9.8" y="7.7" class="st11"/><g><rect width="2.9" height="2.4" x="9.2" y="3.8" class="st4"/></g><polygon points="9.9 5 9.2 5.6 9.2 6.2 11.1 6.2" class="st5"/><polygon points="11.6 4.4 9.9 6.2 12.2 6.2 12.2 5.3" class="st6"/><ellipse cx="10.5" cy="4.6" class="st7" rx=".4" ry=".4"/><g><line x1="14" x2="15" y1="6" y2="7" class="st8"/><line x1="14" x2="15" y1="8" y2="7" class="st8"/></g><g><path d="M6.6,4v6H4V4H6.6 M7.6,3H3v8h4.6V3L7.6,3z" class="st2"/></g><g><path d="M12,4v6H9.4V4H12 M13,3H8.4v8H13V3L13,3z" class="st2"/></g></g></svg>