<svg xmlns="http://www.w3.org/2000/svg" xmlns:xlink="http://www.w3.org/1999/xlink" id="Tabs" x="0" y="0" version="1.1" viewBox="0 0 16 16" xml:space="preserve" style="enable-background:new 0 0 16 16"><style type="text/css">.st0{fill:#d3d3d3}.st0,.st1,.st2{fill-rule:evenodd;clip-rule:evenodd}.st1{fill:#999}.st2{fill:#fff}.st3{fill:#4bb4da}.st4{fill:#f85b30}.st5,.st6{fill-rule:evenodd;clip-rule:evenodd;fill:#58595b}.st6{fill:#939598}</style><g><path d="M0,0h16v16H0V0z" class="st0"/><g><polygon points="15 15 1 15 2 16 16 16" class="st1"/></g><g><polygon points="15 15 15 2 16 3 16 16" class="st1"/></g><g><g><rect width="3" height="2" x="6.5" y="2.5" class="st2"/><path d="M9,3v1H7V3H9 M10,2H6v3h4V2L10,2z" class="st3"/></g><g><rect width="3" height="2" x="11.5" y="2.5" class="st2"/><path d="M14,3v1h-2V3H14 M15,2h-4v3h4V2L15,2z" class="st3"/></g><g><polygon points="1.5 14.5 1.5 1.5 4.5 1.5 4.5 4.5 14.5 4.5 14.5 14.5" class="st2"/><path d="M4,2v2v1h1h9v9H2V2H4 M5,1H1v14h14V4H5V1L5,1z" class="st4"/></g><rect width="8" height="1" x="3" y="6" class="st5"/><rect width="10" height="1" x="3" y="8" class="st6"/><rect width="10" height="1" x="3" y="10" class="st6"/><rect width="10" height="1" x="3" y="12" class="st6"/></g></g></svg>