<svg xmlns="http://www.w3.org/2000/svg" xmlns:xlink="http://www.w3.org/1999/xlink" id="TabsConteiner" x="0" y="0" version="1.1" viewBox="0 0 16 16" xml:space="preserve" style="enable-background:new 0 0 16 16"><style type="text/css">.st0,.st1{fill-rule:evenodd;clip-rule:evenodd;fill:#d3d3d3}.st1{fill:#fff}.st2{fill:#f85b30}.st3{fill-rule:evenodd;clip-rule:evenodd;fill:#999}.st4{fill:#4bb4da}.st5{fill:#58595b}.st5,.st6,.st7{fill-rule:evenodd;clip-rule:evenodd}.st6{fill:#939598}.st7{opacity:.1;fill:#fff}</style><g><path d="M0,0h16v16H0V0z" class="st0"/><g><rect width="13" height="13" x="1.5" y="1.5" class="st1"/><path d="M14,2v12H2V2H14 M15,1H1v14h14V1L15,1z" class="st2"/></g><g><polygon points="15 15 1 15 2 16 16 16" class="st3"/></g><g><polygon points="15 15 15 1 16 2 16 16" class="st3"/></g><g><g><rect width="1.7" height="2" x="7.3" y="4" class="st1"/><path d="M8.5,4.5v1H7.8v-1H8.5 M9.5,3.5H6.8v3h2.7V3.5L9.5,3.5z" class="st2"/></g><g><rect width="1.7" height="2" x="10.8" y="4" class="st1"/><path d="M12,4.5v1h-0.7v-1H12 M13,3.5h-2.7v3H13V3.5L13,3.5z" class="st2"/></g><g><polygon points="3.5 12.5 3.5 3.5 5.5 3.5 5.5 5.5 12.5 5.5 12.5 12.5" class="st1"/><path d="M5,4v1v1h1h6v6H4V4H5 M6,3H3v10h10V5H6V3L6,3z" class="st4"/></g><rect width="6" height="1" x="5" y="7" class="st5"/><rect width="6" height="1" x="5" y="8.5" class="st6"/><rect width="6" height="1" x="5" y="10" class="st6"/></g><rect width="12" height="12" x="2" y="2" class="st7"/></g></svg>