<svg xmlns="http://www.w3.org/2000/svg" xmlns:xlink="http://www.w3.org/1999/xlink" id="ful_width_top_content-content-sidebar_copy" width="50" x="0" y="0" version="1.1" viewBox="0 0 100 150" xml:space="preserve" style="enable-background:new 0 0 100 150"><style type="text/css">.st0{fill:#e6e6e6}.st1{fill:#ccc}.st2{fill:#898989}</style><g id="header-footer_40_"><g><path d="M8,0v15h84V0H8z M8,150h84v-13H8V150z" class="st0"/></g></g><rect width="100" height="31" y="23" class="st1"/><g id="frame_4_2_"><g><path d="M34,89.9V62h-2.4l0,0l0,0H8v29h26V89.9L34,89.9L34,89.9z M29.9,64L21,74.5L12.2,64H29.9z M19.6,76.2L10,87.6 V64.8L19.6,76.2z M11.7,89L21,77.9L30.4,89H11.7z M22.5,76.2L32,64.9v22.7L22.5,76.2z" class="st2"/></g></g><g id="frame_3_24_"><g><path d="M8,27v1.5l0,0l0,0v19.1l0,0l0,0V50h84V27H8z M82.9,29l-33.1,8.2L16.8,29H82.9z M10,29h0.1l36.4,9L10,47V29z M12.8,48l37.1-9.2L87,48H12.8z M90,47.1L53.2,38l36.4-9H90V47.1z" class="st2"/></g></g><g id="frame_4_20_"><g><path d="M38,62v29h2l0,0l0,0h50.1l0,0l0,0H92V62H38z M87.8,64L65.6,75.6L44.1,64H87.8z M40.2,64l23.4,12.6L40,88.9V64 H40.2z M43.8,89l21.7-11.3L86.4,89H43.8z M67.6,76.7L90,65v23.8L67.6,76.7z" class="st2"/></g></g><rect width="31" height="30" y="99" class="st1"/><g id="frame_1_24_"><g><path d="M8,104v1.5l0,0l0,0V124h1.1l0,0.1l0-0.1H23v-20H8z M20.7,106l-5,6.6l-5-6.6H20.7z M10,108.1l4.5,5.9L10,120 V108.1z M15.7,115.5l5,6.5h-9.9L15.7,115.5z M16.8,114l4.2-5.5v11L16.8,114z" class="st2"/></g></g><rect width="31" height="30" x="69" y="99" class="st1"/><rect width="30" height="30" x="35" y="99" class="st1"/><g id="frame_1_26_"><g><path d="M42,104v1.5l0,0l0,0V124h1.1l0,0.1l0-0.1H58v-20H42z M55.5,106l-5.4,6.6l-5.4-6.6H55.5z M44,107.9l5,6.1 l-5,6.1V107.9z M50.2,115.5l5.3,6.5H44.9L50.2,115.5z M51.4,114l4.6-5.7v11.4L51.4,114z" class="st2"/></g></g><g id="frame_1_28_"><g><path d="M77,104v1.5l0,0l0,0V124h1.1l0,0.1l0-0.1H92v-20H77z M89.7,106l-5,6.6l-5-6.6H89.7z M79,108.1l4.5,5.9L79,120 V108.1z M84.7,115.5l5,6.5h-9.9L84.7,115.5z M85.8,114l4.2-5.5v11L85.8,114z" class="st2"/></g></g></svg>