<svg xmlns="http://www.w3.org/2000/svg" xmlns:xlink="http://www.w3.org/1999/xlink" id="start_page" width="50" x="0" y="0" version="1.1" viewBox="0 0 100 150" xml:space="preserve" style="enable-background:new 0 0 100 150"><style type="text/css">.st0{fill:#f4d0ce}.st1{fill:#e6e6e6}.st2{fill:#f7b685}.st3{fill:#898989}.st4{fill:none;stroke:#898989;stroke-width:2;stroke-linecap:square;stroke-miterlimit:10}.st5,.st6{fill-rule:evenodd;clip-rule:evenodd;fill:#fff}.st6{fill:#898989}</style><rect width="76" height="31" x="12" y="31" class="st0"/><g id="header-footer_36_"><g><path d="M0,0v15h100V0H0z M0,150h100v-13H0V150z" class="st1"/></g></g><g id="Rectangle_3_copy_25_"><g><rect width="17" height="8" x="4" y="19" class="st2"/></g></g><g id="Rectangle_3_copy_27_"><g><rect width="17" height="8" x="23" y="19" class="st2"/></g></g><g id="Rectangle_3_copy_31_"><g><rect width="16" height="8" x="42" y="19" class="st2"/></g></g><g id="Rectangle_3_copy_29_"><g><rect width="17" height="8" x="60" y="19" class="st2"/></g></g><g id="Rectangle_3_copy_33_"><g><rect width="17" height="8" x="79" y="19" class="st2"/></g></g><g id="picture_big_48_"><g><path d="M16,35v23h68V35H16z M21.3,56.1l5.9-9.5l2.7,2.9l-4.5,6.6H21.3z M27.4,56.4l9.5-14.3l10.1,14.3H27.4z M82,56 H48.6L36.9,39.3l-6.1,8.9L27,44l-7.7,12H18V37h64V56z" class="st3"/></g></g><g><line x1="91" x2="96" y1="41" y2="46" class="st4"/><line x1="91" x2="96" y1="51" y2="46" class="st4"/></g><g><line x1="9" x2="4" y1="41" y2="46" class="st4"/><line x1="9" x2="4" y1="51" y2="46" class="st4"/></g><circle cx="41" cy="68" r="3" class="st2"/><g><circle cx="50" cy="68" r="3" class="st1"/></g><g><circle cx="59" cy="68" r="3" class="st1"/></g><rect width="26" height="4" x="52" y="39" class="st3"/><rect width="16" height="2" x="52" y="46" class="st3"/><rect width="16" height="2" x="52" y="51" class="st3"/><g id="text_rows_36_"><g><path d="M4,93h44v-2H4V93z M52,73v2h44v-2H52z M4,99h44v-2H4V99z M52,81h44v-2H52V81z M52,87h44v-2H52V87z M4,75h44 v-2H4V75z M4,81h44v-2H4V81z M4,87h44v-2H4V87z M52,93h44v-2H52V93z M52,99h44v-2H52V99z" class="st3"/></g></g><rect width="23" height="20" x="2" y="73" class="st5"/><g><rect width="28" height="2" x="4" y="107" class="st6"/><rect width="28" height="2" x="4" y="113" class="st6"/><rect width="28" height="2" x="4" y="119" class="st6"/><rect width="28" height="2" x="4" y="125" class="st6"/><rect width="28" height="2" x="4" y="131" class="st6"/></g><g><rect width="28" height="2" x="36" y="107" class="st6"/><rect width="28" height="2" x="36" y="113" class="st6"/><rect width="28" height="2" x="36" y="119" class="st6"/><rect width="28" height="2" x="36" y="125" class="st6"/><rect width="28" height="2" x="36" y="131" class="st6"/></g><g><rect width="28" height="2" x="68" y="107" class="st6"/><rect width="28" height="2" x="68" y="113" class="st6"/><rect width="28" height="2" x="68" y="119" class="st6"/><rect width="28" height="2" x="68" y="125" class="st6"/><rect width="28" height="2" x="68" y="131" class="st6"/></g><g id="picture_small_32_"><g><path d="M4,73v20h19V73H4z M9,91l6-7l6,7H9z M21,88.6l-6.3-7.4l-3.3,4.1L10,84l-4,5.3V75h15V88.6z" class="st3"/></g></g></svg>