<svg xmlns="http://www.w3.org/2000/svg" xmlns:xlink="http://www.w3.org/1999/xlink" id="top_content-menu-content-sidebar" width="50" x="0" y="0" version="1.1" viewBox="0 0 100 150" xml:space="preserve" style="enable-background:new 0 0 100 150"><style type="text/css">.st0{fill:#e6e6e6}.st1{fill:#7fb585}.st2{fill:#fff}.st3{fill:#f7b685}.st4{fill:#898989}.st5{fill:#c5d6ed}.st6{fill-rule:evenodd;clip-rule:evenodd;fill:#898989}</style><g id="header-footer_28_"><g><path d="M0,0v15h100V0H0z M0,150h100v-13H0V150z" class="st0"/></g></g><g id="Rectangle_3_copy_2_2_"><g><rect width="23" height="79" x="73" y="54" class="st1"/></g></g><g id="frame_3_2_"><g><path d="M90.5,100L90.5,100L90.5,100H77v29h13l0,0l0,0h2v-29H90.5z M89.6,102l-5.2,11.1L79.2,102H89.6z M83.5,115 l-4.5,9.5v-19.2L83.5,115z M79.6,127l4.7-10.1L89,127H79.6z M85.3,115l4.7-10.1v20.4L85.3,115z" class="st2"/></g></g><g id="frame_2_2_"><g><path d="M77,81v1.1l0,0l0,0V96h15V81H77z M89.2,83l-4.5,4.4L80.2,83H89.2z M79,84.1l4.5,4.4L79,92.9V84.1z M84.7,89.6 l4.5,4.4h-9L84.7,89.6z M85.8,88.5l4.2-4.1v8.3L85.8,88.5z" class="st2"/></g></g><g id="frame_1_2_"><g><path d="M77,58v1.4l0,0l0,0V77h1.1l0,0.1l0-0.1H92V58H77z M89.6,60l-4.9,6.1L79.7,60H89.6z M79,61.9l4.5,5.6L79,73.2 V61.9z M84.7,68.9l4.9,6.1h-9.8L84.7,68.9z M85.8,67.5l4.2-5.2v10.5L85.8,67.5z" class="st2"/></g></g><g id="Rectangle_3_copy_23_"><g><rect width="23" height="79" x="4" y="54" class="st3"/></g></g><g id="Rectangle_4_copy_2_23_"><g><path d="M13,58v2h10v-2H13z M11,58H8v2h3V58z M13,66h10v-2H13V66z M8,66h3v-2H8V66z M13,72h10v-2H13V72z M8,72h3v-2H8 V72z M13,78h10v-2H13V78z M8,78h3v-2H8V78z M13,84h10v-2H13V84z M8,84h3v-2H8V84z" class="st2"/></g></g><g id="text_rows_30_"><g><path d="M31,113h38v-2H31V113z M31,119h38v-2H31V119z M31,131h38v-2H31V131z M31,125h38v-2H31V125z M31,77h38v-2H31 V77z M31,71h38v-2H31V71z M31,57v2h38v-2H31z M31,65h38v-2H31V65z" class="st4"/></g></g><g id="picture_big_36_"><g><path d="M31,82v27h38V82H31z M34.9,107l6.8-10l2.9,3l-4.9,7H34.9z M42.7,107l10.7-15l11.7,15H42.7z M67,106.5L53.4,89 l-7.2,9.6L41.7,94L33,106.3V84H67V106.5z" class="st4"/></g></g><rect width="92" height="31" x="4" y="19" class="st5"/><rect width="41" height="2" x="51" y="30" class="st6"/><rect width="41" height="2" x="51" y="23" class="st6"/><rect width="41" height="2" x="51" y="37" class="st6"/><rect width="41" height="2" x="51" y="44" class="st6"/><g id="picture_big_38_"><g><path d="M8,23v23h41V23H8z M12,44.1l7.2-9.5l3.3,2.9L17,44.1H12z M19.4,44.4l11.6-14.3l12.3,14.3H19.4z M47,44h-1.7 L31,27.3l-7.5,8.9L19,32l-9,11.5V25h37V44z" class="st4"/></g></g></svg>