<svg xmlns="http://www.w3.org/2000/svg" xmlns:xlink="http://www.w3.org/1999/xlink" id="top_content-menu-content" width="50" x="0" y="0" version="1.1" viewBox="0 0 100 150" xml:space="preserve" style="enable-background:new 0 0 100 150"><style type="text/css">.st0{fill:#e6e6e6}.st1{fill:#f7b685}.st2{fill:#fff}.st3{fill:#898989}.st4{fill-rule:evenodd;clip-rule:evenodd;fill:#fff}.st5{fill:#c5d6ed}.st6{fill-rule:evenodd;clip-rule:evenodd;fill:#898989}</style><g id="header-footer_30_"><g><path d="M0,0v15h100V0H0z M0,150h100v-13H0V150z" class="st0"/></g></g><g id="Rectangle_3_copy_2_"><g><rect width="23" height="79" x="4" y="54" class="st1"/></g></g><g id="Rectangle_4_copy_2_2_"><g><path d="M13,58v2h10v-2H13z M11,58H8v2h3V58z M13,66h10v-2H13V66z M8,66h3v-2H8V66z M13,72h10v-2H13V72z M8,72h3v-2H8 V72z M13,78h10v-2H13V78z M8,78h3v-2H8V78z M13,84h10v-2H13V84z M8,84h3v-2H8V84z" class="st2"/></g></g><g id="text_rows_4_"><g><path d="M95.9,93h-65v2h65V93z M30.9,125H96v-2H30.9V125z M95.9,99h-65v2h65V99z M95.9,105h-65v2h65V105z M30.9,113 H96v-2H30.9V113z M30.9,119H96v-2H30.9V119z M30.9,57v2H96v-2H30.9z M30.9,131H96v-2H30.9V131z M30.9,71H96v-2H30.9V71z M30.9,77 H96v-2H30.9V77z M95.9,81h-65v2h65V81z M95.9,87h-65v2h65V87z M30.9,65H96v-2H30.9V65z" class="st3"/></g></g><rect width="40" height="26" x="55.9" y="99" class="st4"/><rect width="21" height="23" x="31" y="62" class="st4"/><g id="picture_small_2_"><g><path d="M31,63v20h19V63H31z M36,81l6-7l6,7H36z M48,78.7l-6.3-7.4l-3.3,4.1L37,74l-4,5.3V65h15V78.7z" class="st3"/></g></g><g id="picture_big_4_"><g><path d="M57.9,99v26h38V99H57.9z M61.8,123l6.8-10l2.9,3l-4.9,7H61.8z M69.6,123l10.7-15L92,123H69.6z M94,122.5 L80.3,105l-7.2,9.6l-4.4-4.6l-8.8,12.3V101H94V122.5z" class="st3"/></g></g><rect width="92" height="31" x="4" y="19" class="st5"/><rect width="41" height="2" x="51" y="30" class="st6"/><rect width="41" height="2" x="51" y="23" class="st6"/><rect width="41" height="2" x="51" y="37" class="st6"/><rect width="41" height="2" x="51" y="44" class="st6"/><g id="picture_big_30_"><g><path d="M8,23v23h41V23H8z M12,44.1l7.2-9.5l3.3,2.9L17,44.1H12z M19.4,44.4l11.6-14.3l12.3,14.3H19.4z M47,44h-1.7 L31,27.3l-7.5,8.9L19,32l-9,11.5V25h37V44z" class="st3"/></g></g></svg>